<svg width="184" height="87" viewBox="0 0 184 87" fill="none" xmlns="http://www.w3.org/2000/svg">
<g filter="url(#filter0_d_60_6)">
<path d="M21.7601 35.528C19.2001 35.528 16.9601 35.032 15.0401 34.04C13.1521 33.016 11.6961 31.576 10.6721 29.72C9.64806 27.864 9.13606 25.672 9.13606 23.144C9.13606 21.256 9.42406 19.56 10.0001 18.056C10.5761 16.552 11.4081 15.272 12.4961 14.216C13.6161 13.16 14.9601 12.36 16.5281 11.816C18.0961 11.24 19.8401 10.952 21.7601 10.952C22.7521 10.952 23.8081 11.08 24.9281 11.336C26.0481 11.56 27.1521 11.96 28.2401 12.536C28.8801 12.824 29.3121 13.24 29.5361 13.784C29.7921 14.296 29.8881 14.84 29.8241 15.416C29.7601 15.96 29.5521 16.456 29.2001 16.904C28.8801 17.32 28.4641 17.608 27.9521 17.768C27.4401 17.896 26.8641 17.8 26.2241 17.48C25.6161 17.128 24.9761 16.872 24.3041 16.712C23.6641 16.552 23.0561 16.472 22.4801 16.472C21.5201 16.472 20.6721 16.632 19.9361 16.952C19.2001 17.24 18.5761 17.672 18.0641 18.248C17.5841 18.792 17.2001 19.48 16.9121 20.312C16.6561 21.144 16.5281 22.104 16.5281 23.192C16.5281 25.304 17.0401 26.968 18.0641 28.184C19.1201 29.368 20.5921 29.96 22.4801 29.96C23.0561 29.96 23.6641 29.896 24.3041 29.768C24.9441 29.608 25.5841 29.352 26.2241 29C26.8641 28.68 27.4401 28.6 27.9521 28.76C28.4641 28.92 28.8641 29.224 29.1521 29.672C29.4721 30.088 29.6481 30.584 29.6801 31.16C29.7441 31.704 29.6481 32.248 29.3921 32.792C29.1681 33.304 28.7521 33.704 28.1441 33.992C27.0561 34.536 25.9681 34.92 24.8801 35.144C23.7921 35.4 22.7521 35.528 21.7601 35.528ZM44.7892 35.528C42.2612 35.528 40.0532 35.032 38.1652 34.04C36.3092 33.048 34.8692 31.624 33.8452 29.768C32.8212 27.912 32.3092 25.72 32.3092 23.192C32.3092 21.304 32.5972 19.608 33.1732 18.104C33.7492 16.6 34.5812 15.32 35.6692 14.264C36.7892 13.176 38.1172 12.36 39.6532 11.816C41.1892 11.24 42.9012 10.952 44.7892 10.952C47.3172 10.952 49.5092 11.448 51.3652 12.44C53.2532 13.432 54.7092 14.84 55.7332 16.664C56.7892 18.488 57.3172 20.664 57.3172 23.192C57.3172 25.112 57.0132 26.824 56.4052 28.328C55.8292 29.832 54.9972 31.128 53.9092 32.216C52.8212 33.304 51.4932 34.136 49.9252 34.712C48.3892 35.256 46.6772 35.528 44.7892 35.528ZM44.7892 30.104C45.8452 30.104 46.7572 29.848 47.5252 29.336C48.2932 28.824 48.9012 28.072 49.3492 27.08C49.7972 26.056 50.0212 24.76 50.0212 23.192C50.0212 20.856 49.5412 19.144 48.5812 18.056C47.6212 16.936 46.3572 16.376 44.7892 16.376C43.7652 16.376 42.8532 16.616 42.0532 17.096C41.2852 17.576 40.6772 18.328 40.2292 19.352C39.8132 20.344 39.6052 21.624 39.6052 23.192C39.6052 25.528 40.0852 27.272 41.0452 28.424C42.0052 29.544 43.2532 30.104 44.7892 30.104ZM70.9428 35.528C68.0948 35.528 65.9668 34.744 64.5588 33.176C63.1508 31.576 62.4468 29.208 62.4468 26.072V4.424C62.4468 3.208 62.7508 2.296 63.3588 1.688C63.9988 1.048 64.9108 0.727998 66.0948 0.727998C67.2468 0.727998 68.1268 1.048 68.7348 1.688C69.3748 2.296 69.6948 3.208 69.6948 4.424V25.784C69.6948 27.096 69.9668 28.072 70.5108 28.712C71.0868 29.32 71.8388 29.624 72.7668 29.624C73.0228 29.624 73.2628 29.608 73.4868 29.576C73.7108 29.544 73.9508 29.528 74.2068 29.528C74.7188 29.464 75.0708 29.624 75.2628 30.008C75.4868 30.36 75.5988 31.08 75.5988 32.168C75.5988 33.128 75.4068 33.864 75.0228 34.376C74.6388 34.856 74.0468 35.176 73.2468 35.336C72.9268 35.368 72.5588 35.4 72.1428 35.432C71.7268 35.496 71.3268 35.528 70.9428 35.528ZM87.6472 35.528C84.7992 35.528 82.6712 34.744 81.2632 33.176C79.8552 31.576 79.1512 29.208 79.1512 26.072V4.424C79.1512 3.208 79.4552 2.296 80.0632 1.688C80.7032 1.048 81.6152 0.727998 82.7992 0.727998C83.9512 0.727998 84.8312 1.048 85.4392 1.688C86.0792 2.296 86.3992 3.208 86.3992 4.424V25.784C86.3992 27.096 86.6712 28.072 87.2152 28.712C87.7912 29.32 88.5432 29.624 89.4712 29.624C89.7272 29.624 89.9672 29.608 90.1912 29.576C90.4152 29.544 90.6552 29.528 90.9112 29.528C91.4232 29.464 91.7752 29.624 91.9672 30.008C92.1912 30.36 92.3032 31.08 92.3032 32.168C92.3032 33.128 92.1112 33.864 91.7272 34.376C91.3432 34.856 90.7512 35.176 89.9512 35.336C89.6312 35.368 89.2632 35.4 88.8472 35.432C88.4312 35.496 88.0312 35.528 87.6472 35.528ZM107.861 35.528C105.077 35.528 102.677 35.032 100.661 34.04C98.6772 33.016 97.1412 31.592 96.0532 29.768C94.9972 27.912 94.4692 25.736 94.4692 23.24C94.4692 20.808 94.9812 18.68 96.0052 16.856C97.0292 15 98.4532 13.56 100.277 12.536C102.133 11.48 104.229 10.952 106.565 10.952C108.261 10.952 109.797 11.24 111.173 11.816C112.549 12.36 113.733 13.16 114.725 14.216C115.717 15.24 116.469 16.504 116.981 18.008C117.493 19.48 117.749 21.128 117.749 22.952C117.749 23.56 117.557 24.024 117.173 24.344C116.789 24.632 116.229 24.776 115.493 24.776H100.421V21.032H112.517L111.749 21.704C111.749 20.392 111.557 19.304 111.173 18.44C110.789 17.544 110.229 16.872 109.493 16.424C108.789 15.976 107.909 15.752 106.853 15.752C105.669 15.752 104.661 16.024 103.829 16.568C102.997 17.112 102.357 17.896 101.909 18.92C101.461 19.944 101.237 21.176 101.237 22.616V23C101.237 25.432 101.797 27.224 102.917 28.376C104.069 29.528 105.765 30.104 108.005 30.104C108.773 30.104 109.653 30.008 110.645 29.816C111.637 29.624 112.565 29.32 113.429 28.904C114.165 28.552 114.821 28.44 115.397 28.568C115.973 28.664 116.421 28.92 116.741 29.336C117.061 29.752 117.237 30.232 117.269 30.776C117.333 31.32 117.221 31.864 116.933 32.408C116.645 32.92 116.165 33.352 115.493 33.704C114.405 34.312 113.173 34.76 111.797 35.048C110.453 35.368 109.141 35.528 107.861 35.528ZM134.013 44.168C132.285 44.168 130.621 44.024 129.021 43.736C127.453 43.448 126.061 43.016 124.845 42.44C124.109 42.12 123.581 41.704 123.261 41.192C122.973 40.68 122.845 40.136 122.877 39.56C122.941 38.984 123.133 38.472 123.453 38.024C123.805 37.576 124.237 37.256 124.749 37.064C125.261 36.904 125.805 36.952 126.381 37.208C127.789 37.848 129.085 38.264 130.269 38.456C131.485 38.648 132.525 38.744 133.389 38.744C135.437 38.744 136.973 38.28 137.997 37.352C139.021 36.424 139.533 35 139.533 33.08V29.432H139.965C139.485 30.904 138.493 32.104 136.989 33.032C135.485 33.96 133.821 34.424 131.997 34.424C129.885 34.424 128.045 33.944 126.477 32.984C124.909 31.992 123.693 30.616 122.829 28.856C121.965 27.064 121.533 25 121.533 22.664C121.533 20.904 121.773 19.304 122.253 17.864C122.765 16.424 123.469 15.192 124.365 14.168C125.293 13.144 126.397 12.36 127.677 11.816C128.989 11.24 130.429 10.952 131.997 10.952C133.885 10.952 135.549 11.416 136.989 12.344C138.461 13.24 139.437 14.424 139.917 15.896L139.437 17.432V14.696C139.437 13.512 139.741 12.616 140.349 12.008C140.989 11.368 141.885 11.048 143.037 11.048C144.189 11.048 145.069 11.368 145.677 12.008C146.285 12.616 146.589 13.512 146.589 14.696V32.264C146.589 36.2 145.501 39.16 143.325 41.144C141.181 43.16 138.077 44.168 134.013 44.168ZM134.157 29C135.245 29 136.173 28.744 136.941 28.232C137.741 27.72 138.365 27 138.813 26.072C139.261 25.112 139.485 23.976 139.485 22.664C139.485 20.68 138.989 19.144 137.997 18.056C137.037 16.936 135.757 16.376 134.157 16.376C133.069 16.376 132.125 16.632 131.325 17.144C130.525 17.624 129.901 18.344 129.453 19.304C129.037 20.232 128.829 21.352 128.829 22.664C128.829 24.648 129.309 26.2 130.269 27.32C131.229 28.44 132.525 29 134.157 29ZM165.176 35.528C162.392 35.528 159.992 35.032 157.976 34.04C155.992 33.016 154.456 31.592 153.368 29.768C152.312 27.912 151.784 25.736 151.784 23.24C151.784 20.808 152.296 18.68 153.32 16.856C154.344 15 155.768 13.56 157.592 12.536C159.448 11.48 161.544 10.952 163.88 10.952C165.576 10.952 167.112 11.24 168.488 11.816C169.864 12.36 171.048 13.16 172.04 14.216C173.032 15.24 173.784 16.504 174.296 18.008C174.808 19.48 175.064 21.128 175.064 22.952C175.064 23.56 174.872 24.024 174.488 24.344C174.104 24.632 173.544 24.776 172.808 24.776H157.736V21.032H169.832L169.064 21.704C169.064 20.392 168.872 19.304 168.488 18.44C168.104 17.544 167.544 16.872 166.808 16.424C166.104 15.976 165.224 15.752 164.168 15.752C162.984 15.752 161.976 16.024 161.144 16.568C160.312 17.112 159.672 17.896 159.224 18.92C158.776 19.944 158.552 21.176 158.552 22.616V23C158.552 25.432 159.112 27.224 160.232 28.376C161.384 29.528 163.08 30.104 165.32 30.104C166.088 30.104 166.968 30.008 167.96 29.816C168.952 29.624 169.88 29.32 170.744 28.904C171.48 28.552 172.136 28.44 172.712 28.568C173.288 28.664 173.736 28.92 174.056 29.336C174.376 29.752 174.552 30.232 174.584 30.776C174.648 31.32 174.536 31.864 174.248 32.408C173.96 32.92 173.48 33.352 172.808 33.704C171.72 34.312 170.488 34.76 169.112 35.048C167.768 35.368 166.456 35.528 165.176 35.528Z" fill="url(#paint0_linear_60_6)"/>
</g>
<g filter="url(#filter1_d_60_6)">
<path d="M56.9651 78.528C54.4051 78.528 52.1651 78.032 50.2451 77.04C48.3571 76.016 46.9011 74.576 45.8771 72.72C44.8531 70.864 44.3411 68.672 44.3411 66.144C44.3411 64.256 44.6291 62.56 45.2051 61.056C45.7811 59.552 46.6131 58.272 47.7011 57.216C48.8211 56.16 50.1651 55.36 51.7331 54.816C53.3011 54.24 55.0451 53.952 56.9651 53.952C57.9571 53.952 59.0131 54.08 60.1331 54.336C61.2531 54.56 62.3571 54.96 63.4451 55.536C64.0851 55.824 64.5171 56.24 64.7411 56.784C64.9971 57.296 65.0931 57.84 65.0291 58.416C64.9651 58.96 64.7571 59.456 64.4051 59.904C64.0851 60.32 63.6691 60.608 63.1571 60.768C62.6451 60.896 62.0691 60.8 61.4291 60.48C60.8211 60.128 60.1811 59.872 59.5091 59.712C58.8691 59.552 58.2611 59.472 57.6851 59.472C56.7251 59.472 55.8771 59.632 55.1411 59.952C54.4051 60.24 53.7811 60.672 53.2691 61.248C52.7891 61.792 52.4051 62.48 52.1171 63.312C51.8611 64.144 51.7331 65.104 51.7331 66.192C51.7331 68.304 52.2451 69.968 53.2691 71.184C54.3251 72.368 55.7971 72.96 57.6851 72.96C58.2611 72.96 58.8691 72.896 59.5091 72.768C60.1491 72.608 60.7891 72.352 61.4291 72C62.0691 71.68 62.6451 71.6 63.1571 71.76C63.6691 71.92 64.0691 72.224 64.3571 72.672C64.6771 73.088 64.8531 73.584 64.8851 74.16C64.9491 74.704 64.8531 75.248 64.5971 75.792C64.3731 76.304 63.9571 76.704 63.3491 76.992C62.2611 77.536 61.1731 77.92 60.0851 78.144C58.9971 78.4 57.9571 78.528 56.9651 78.528ZM79.9942 78.528C77.4662 78.528 75.2582 78.032 73.3702 77.04C71.5142 76.048 70.0742 74.624 69.0502 72.768C68.0262 70.912 67.5142 68.72 67.5142 66.192C67.5142 64.304 67.8022 62.608 68.3782 61.104C68.9542 59.6 69.7862 58.32 70.8742 57.264C71.9942 56.176 73.3222 55.36 74.8582 54.816C76.3942 54.24 78.1062 53.952 79.9942 53.952C82.5222 53.952 84.7142 54.448 86.5702 55.44C88.4582 56.432 89.9142 57.84 90.9382 59.664C91.9942 61.488 92.5222 63.664 92.5222 66.192C92.5222 68.112 92.2182 69.824 91.6102 71.328C91.0342 72.832 90.2022 74.128 89.1142 75.216C88.0262 76.304 86.6982 77.136 85.1302 77.712C83.5942 78.256 81.8822 78.528 79.9942 78.528ZM79.9942 73.104C81.0502 73.104 81.9622 72.848 82.7302 72.336C83.4982 71.824 84.1062 71.072 84.5542 70.08C85.0022 69.056 85.2262 67.76 85.2262 66.192C85.2262 63.856 84.7462 62.144 83.7862 61.056C82.8262 59.936 81.5622 59.376 79.9942 59.376C78.9702 59.376 78.0582 59.616 77.2582 60.096C76.4902 60.576 75.8822 61.328 75.4342 62.352C75.0182 63.344 74.8102 64.624 74.8102 66.192C74.8102 68.528 75.2902 70.272 76.2502 71.424C77.2102 72.544 78.4582 73.104 79.9942 73.104ZM101.396 78.432C100.18 78.432 99.2518 78.112 98.6118 77.472C97.9718 76.832 97.6518 75.92 97.6518 74.736V57.696C97.6518 56.512 97.9558 55.616 98.5638 55.008C99.2038 54.368 100.084 54.048 101.204 54.048C102.356 54.048 103.236 54.368 103.844 55.008C104.452 55.616 104.756 56.512 104.756 57.696V60.192H104.276C104.66 58.272 105.508 56.784 106.82 55.728C108.132 54.672 109.828 54.08 111.908 53.952C112.708 53.888 113.316 54.096 113.732 54.576C114.18 55.024 114.42 55.776 114.452 56.832C114.516 57.824 114.308 58.608 113.828 59.184C113.38 59.76 112.612 60.112 111.524 60.24L110.42 60.336C108.596 60.496 107.236 61.024 106.34 61.92C105.476 62.816 105.044 64.112 105.044 65.808V74.736C105.044 75.92 104.724 76.832 104.084 77.472C103.476 78.112 102.58 78.432 101.396 78.432ZM129.971 78.528C127.187 78.528 124.787 78.032 122.771 77.04C120.787 76.016 119.251 74.592 118.163 72.768C117.107 70.912 116.579 68.736 116.579 66.24C116.579 63.808 117.091 61.68 118.115 59.856C119.139 58 120.563 56.56 122.387 55.536C124.243 54.48 126.339 53.952 128.675 53.952C130.371 53.952 131.907 54.24 133.283 54.816C134.659 55.36 135.843 56.16 136.835 57.216C137.827 58.24 138.579 59.504 139.091 61.008C139.603 62.48 139.859 64.128 139.859 65.952C139.859 66.56 139.667 67.024 139.283 67.344C138.899 67.632 138.339 67.776 137.603 67.776H122.531V64.032H134.627L133.859 64.704C133.859 63.392 133.667 62.304 133.283 61.44C132.899 60.544 132.339 59.872 131.603 59.424C130.899 58.976 130.019 58.752 128.963 58.752C127.779 58.752 126.771 59.024 125.939 59.568C125.107 60.112 124.467 60.896 124.019 61.92C123.571 62.944 123.347 64.176 123.347 65.616V66C123.347 68.432 123.907 70.224 125.027 71.376C126.179 72.528 127.875 73.104 130.115 73.104C130.883 73.104 131.763 73.008 132.755 72.816C133.747 72.624 134.675 72.32 135.539 71.904C136.275 71.552 136.931 71.44 137.507 71.568C138.083 71.664 138.531 71.92 138.851 72.336C139.171 72.752 139.347 73.232 139.379 73.776C139.443 74.32 139.331 74.864 139.043 75.408C138.755 75.92 138.275 76.352 137.603 76.704C136.515 77.312 135.283 77.76 133.907 78.048C132.563 78.368 131.251 78.528 129.971 78.528Z" fill="url(#paint1_linear_60_6)"/>
</g>
<defs>
<filter id="filter0_d_60_6" x="5.13605" y="0.728027" width="173.928" height="51.4399" filterUnits="userSpaceOnUse" color-interpolation-filters="sRGB">
<feFlood flood-opacity="0" result="BackgroundImageFix"/>
<feColorMatrix in="SourceAlpha" type="matrix" values="0 0 0 0 0 0 0 0 0 0 0 0 0 0 0 0 0 0 127 0" result="hardAlpha"/>
<feOffset dy="4"/>
<feGaussianBlur stdDeviation="2"/>
<feComposite in2="hardAlpha" operator="out"/>
<feColorMatrix type="matrix" values="0 0 0 0 0 0 0 0 0 0 0 0 0 0 0 0 0 0 0.25 0"/>
<feBlend mode="normal" in2="BackgroundImageFix" result="effect1_dropShadow_60_6"/>
<feBlend mode="normal" in="SourceGraphic" in2="effect1_dropShadow_60_6" result="shape"/>
</filter>
<filter id="filter1_d_60_6" x="40.3411" y="53.856" width="103.518" height="32.672" filterUnits="userSpaceOnUse" color-interpolation-filters="sRGB">
<feFlood flood-opacity="0" result="BackgroundImageFix"/>
<feColorMatrix in="SourceAlpha" type="matrix" values="0 0 0 0 0 0 0 0 0 0 0 0 0 0 0 0 0 0 127 0" result="hardAlpha"/>
<feOffset dy="4"/>
<feGaussianBlur stdDeviation="2"/>
<feComposite in2="hardAlpha" operator="out"/>
<feColorMatrix type="matrix" values="0 0 0 0 0 0 0 0 0 0 0 0 0 0 0 0 0 0 0.25 0"/>
<feBlend mode="normal" in2="BackgroundImageFix" result="effect1_dropShadow_60_6"/>
<feBlend mode="normal" in="SourceGraphic" in2="effect1_dropShadow_60_6" result="shape"/>
</filter>
<linearGradient id="paint0_linear_60_6" x1="-17.0857" y1="36" x2="211.6" y2="36" gradientUnits="userSpaceOnUse">
<stop stop-color="white"/>
<stop offset="1" stop-color="#0075FF"/>
</linearGradient>
<linearGradient id="paint1_linear_60_6" x1="20.8571" y1="78" x2="170" y2="78" gradientUnits="userSpaceOnUse">
<stop stop-color="white"/>
<stop offset="1" stop-color="#0075FF"/>
</linearGradient>
</defs>
</svg>
